<?xml version="1.0" encoding="UTF-8" standalone="no"?>
<svg
   xmlns:dc="http://purl.org/dc/elements/1.1/"
   xmlns:cc="http://creativecommons.org/ns#"
   xmlns:rdf="http://www.w3.org/1999/02/22-rdf-syntax-ns#"
   xmlns:svg="http://www.w3.org/2000/svg"
   xmlns="http://www.w3.org/2000/svg"
   xmlns:sodipodi="http://sodipodi.sourceforge.net/DTD/sodipodi-0.dtd"
   xmlns:inkscape="http://www.inkscape.org/namespaces/inkscape"
   id="Layer_1"
   data-name="Layer 1"
   viewBox="0 0 128 64"
   width="512"
   height="256"
   version="1.1"
   sodipodi:docname="bed.svg"
   inkscape:version="0.92.4 (unknown)">
  <metadata
     id="metadata19">
    <rdf:RDF>
      <cc:Work
         rdf:about="">
        <dc:format>image/svg+xml</dc:format>
        <dc:type
           rdf:resource="http://purl.org/dc/dcmitype/StillImage" />
        <dc:title>DEPATURES</dc:title>
      </cc:Work>
    </rdf:RDF>
  </metadata>
  <defs
     id="defs17" />
  <sodipodi:namedview
     pagecolor="#ffffff"
     bordercolor="#666666"
     borderopacity="1"
     objecttolerance="10"
     gridtolerance="10"
     guidetolerance="10"
     inkscape:pageopacity="0"
     inkscape:pageshadow="2"
     inkscape:window-width="1366"
     inkscape:window-height="720"
     id="namedview15"
     showgrid="false"
     inkscape:zoom="1.0071996"
     inkscape:cx="267.39591"
     inkscape:cy="176.01091"
     inkscape:window-x="0"
     inkscape:window-y="277"
     inkscape:window-maximized="1"
     inkscape:current-layer="Layer_1" />
  <title
     id="title2">DEPATURES</title>
  <path
     d="m 108.68088,57.482495 h -0.95 a 1.25,1.25 0 0 0 0,2.5 h 0.95 a 1.25,1.25 0 0 0 0,-2.5 z"
     id="path10"
     inkscape:connector-curvature="0" />
  <path
     d="M 102.35588,57.482495 H 16.280881 a 1.25,1.25 0 0 0 0,2.5 h 86.074999 a 1.25,1.25 0 0 0 0,-2.5 z"
     id="path12"
     inkscape:connector-curvature="0" />
  <g
     id="g837"
     transform="matrix(0.12875156,0,0,0.11195653,26.357981,0.87548792)">
    <path
       d="m 85.345703,31.947266 c -12.844232,-0.927787 -24.982096,6.326578 -33.521484,15.375 -10.104258,10.817931 -12.260361,26.268649 -11.15625,40.478515 -0.225799,31.223869 0.45124,63.024989 -0.337891,93.888669 -17.305935,7.95008 -27.179847,27.49821 -25.263672,46.17774 0,20.08854 0,40.17708 0,60.26562 -6.2371451,-1.06903 -14.70634282,0.36986 -16.6093748,7.45899 -1.2619169,13.91318 -0.011025,28.0819 -0.4570312,42.07617 0.2625028,28.22224 -0.494864,56.49758 0.3222656,84.69141 1.97592319,15.90261 19.5841714,27.18295 34.8574224,22.32031 13.137042,-3.4366 21.61177,-17.27278 20.019531,-30.54688 0,-6.53255 0,-13.0651 0,-19.59765 135.200521,0 270.401041,0 405.601561,0 1.07334,13.229 -3.40116,28.65546 5.48438,40.11523 9.30324,13.35018 30.56775,14.8359 41.66406,2.9668 8.38455,-7.75095 8.77913,-19.91964 8.05078,-30.48438 -0.1623,-36.87344 0.31724,-73.79183 -0.22656,-110.63867 -1.21973,-6.90374 -9.09743,-9.61815 -15.3086,-8.36133 -3.54133,-2.63575 -0.53474,-11.81942 -1.53125,-17 -0.5153,-18.93044 0.99204,-37.98589 -0.66387,-56.84943 -2.33852,-14.10982 -11.95882,-26.74199 -24.93769,-32.75018 -0.20457,-36.56547 0.39916,-73.16127 -0.2832,-109.708981 -2.08273,-23.362846 -24.83849,-41.779166 -48.03125,-39.904297 -107.51486,0.353864 -215.03647,0.32081 -322.55194,0.03867 -5.03983,-0.06673 -10.079962,-0.05984 -15.119937,-0.01133 z m 0.0098,21.251953 c 114.581871,0.0839 229.175321,-0.167421 343.750001,0.125 13.3171,1.016411 23.00961,14.526512 21.16015,27.5 0,32.125001 10e-6,64.250001 0,96.375001 -5.3736,-0.11391 -11.46099,0.22312 -16.4082,-0.16016 6.13602,-13.43995 2.23392,-28.7007 3.3418,-42.90625 1.63764,-14.64034 -4.96895,-30.27372 -18.16797,-37.490232 -13.61379,-8.005306 -30.0824,-3.66763 -44.96484,-4.77539 -24.11972,0.346532 -48.3099,-0.652389 -72.39258,0.419921 C 283.37371,94.680835 269.38078,112.70409 271.06641,131 c 0.80932,13.46836 -1.671,27.28933 1.31445,40.55469 -0.23705,1.98843 4.21193,6.59585 0.10547,5.64453 -11.54719,-0.10707 -23.77199,0.21394 -34.89649,-0.16016 6.13971,-13.43896 2.23511,-28.70083 3.34375,-42.90625 1.63783,-14.6405 -4.96922,-30.2734 -18.16797,-37.490232 -13.61378,-8.005306 -30.0824,-3.66763 -44.96484,-4.77539 -24.11971,0.346532 -48.3099,-0.652389 -72.39258,0.419921 C 87.107931,94.680713 73.115186,112.70406 74.800781,131 c 0.810302,13.46683 -1.672321,27.28737 1.314453,40.55078 -0.241751,1.98978 4.21105,6.59987 0.103516,5.64844 -4.661176,-1.50028 -15.998746,3.67583 -14.484375,-4 C 61.937773,139.86583 61.340306,106.49131 62.009766,73.181641 63.587375,61.915249 73.984147,53.00603 85.355469,53.199219 Z M 204.75195,112.93359 c 10.33603,-0.35865 17.11785,10.58314 15.11524,20.11524 -0.58415,11.37967 1.18718,23.04988 -0.91016,34.25195 -3.01099,9.3372 -13.77412,10.96445 -22.20508,9.89844 -29.61219,-0.20697 -59.2793,0.41316 -88.85742,-0.3086 -9.495228,-1.63992 -13.60735,-12.13454 -12.027342,-20.80664 0.72722,-11.26007 -1.498187,-22.94778 1.183593,-33.94336 3.511929,-9.37089 14.479199,-10.00294 22.931639,-9.20703 28.25651,0 56.51302,0 84.76953,0 z m 196.26563,0 c 10.33603,-0.35865 17.11785,10.58314 15.11523,20.11524 -0.58415,11.37967 1.18719,23.04988 -0.91015,34.25195 -3.01099,9.3372 -13.77413,10.96445 -22.20508,9.89844 -29.61219,-0.20697 -59.27931,0.41316 -88.85742,-0.3086 -9.49523,-1.63992 -13.60735,-12.13454 -12.02735,-20.80664 0.72722,-11.26007 -1.49818,-22.94778 1.1836,-33.94336 3.51193,-9.37089 14.47919,-10.00294 22.93164,-9.20703 28.25651,0 56.51302,0 84.76953,0 z M 59.757812,198.26562 c 131.646988,0.0837 263.305488,-0.16715 394.945308,0.125 13.32448,1.01561 23.00791,14.5251 21.16407,27.5 0,20.7474 0,41.4948 0,62.24219 -146.57813,0 -293.15625,0 -439.734378,0 0.304382,-23.47905 -0.573932,-47.02988 0.373047,-70.4707 1.853939,-11.04454 12.069997,-19.55399 23.251953,-19.39649 z m 433.175778,110.9336 c 0,21.42187 0,42.84375 0,64.26562 -157.95573,0 -315.91145,0 -473.867184,0 1.200106,-4.82203 -3.561998,-15.60626 5,-13.0664 29.672756,-0.16489 59.390443,0.31991 89.037114,-0.22461 8.40529,-1.32695 11.35158,-13.42224 4.49414,-18.46289 -6.77664,-4.94721 -15.98084,-1.20867 -23.664066,-2.37891 -24.955729,0 -49.911459,0 -74.867188,0 0,-10.04427 0,-20.08854 0,-30.13281 157.955734,0 315.911454,0 473.867184,0 z M 32.132812,394.53516 c -0.683219,8.82581 1.276896,18.12571 -0.791015,26.71679 -3.072246,6.40864 -13.645863,2.80745 -12.275391,-4.17187 0,-7.51498 0,-15.02995 0,-22.54492 4.355469,0 8.710938,0 13.066406,0 z m 460.800778,0 c -0.68482,8.82684 1.27996,18.12941 -0.79297,26.7207 -3.06758,6.37525 -13.64329,2.81059 -12.27343,-4.17578 0,-7.51498 0,-15.02995 0,-22.54492 4.35547,0 8.71094,0 13.0664,0 z"
       id="path817"
       inkscape:connector-curvature="0" />
    <path
       id="path819"
       d="m 162.13281,341.33203 h -17.0664 c -4.71094,0 -8.53125,3.82031 -8.53125,8.53516 0,4.71093 3.82031,8.53125 8.53125,8.53125 h 17.0664 c 4.71485,0 8.53516,-3.82032 8.53516,-8.53125 0,-4.71485 -3.82031,-8.53516 -8.53516,-8.53516 z m 0,0"
       inkscape:connector-curvature="0" />
  </g>
</svg>
