<?xml version="1.0" encoding="UTF-8" standalone="no"?>
<svg
   xmlns:dc="http://purl.org/dc/elements/1.1/"
   xmlns:cc="http://creativecommons.org/ns#"
   xmlns:rdf="http://www.w3.org/1999/02/22-rdf-syntax-ns#"
   xmlns:svg="http://www.w3.org/2000/svg"
   xmlns="http://www.w3.org/2000/svg"
   xmlns:sodipodi="http://sodipodi.sourceforge.net/DTD/sodipodi-0.dtd"
   xmlns:inkscape="http://www.inkscape.org/namespaces/inkscape"
   id="Layer_1"
   data-name="Layer 1"
   viewBox="0 0 128 64"
   width="512"
   height="256"
   version="1.1"
   sodipodi:docname="car.svg"
   inkscape:version="0.92.4 (unknown)">
  <metadata
     id="metadata19">
    <rdf:RDF>
      <cc:Work
         rdf:about="">
        <dc:format>image/svg+xml</dc:format>
        <dc:type
           rdf:resource="http://purl.org/dc/dcmitype/StillImage" />
        <dc:title>DEPATURES</dc:title>
      </cc:Work>
    </rdf:RDF>
  </metadata>
  <defs
     id="defs17" />
  <sodipodi:namedview
     pagecolor="#ffffff"
     bordercolor="#666666"
     borderopacity="1"
     objecttolerance="10"
     gridtolerance="10"
     guidetolerance="10"
     inkscape:pageopacity="0"
     inkscape:pageshadow="2"
     inkscape:window-width="1366"
     inkscape:window-height="720"
     id="namedview15"
     showgrid="false"
     inkscape:zoom="1.0071996"
     inkscape:cx="109.6956"
     inkscape:cy="150.57696"
     inkscape:window-x="0"
     inkscape:window-y="277"
     inkscape:window-maximized="1"
     inkscape:current-layer="Layer_1" />
  <title
     id="title2">DEPATURES</title>
  <path
     d="m 108.68088,57.482495 h -0.95 a 1.25,1.25 0 0 0 0,2.5 h 0.95 a 1.25,1.25 0 0 0 0,-2.5 z"
     id="path10"
     inkscape:connector-curvature="0" />
  <path
     d="M 102.35588,57.482495 H 16.280881 a 1.25,1.25 0 0 0 0,2.5 h 86.074999 a 1.25,1.25 0 0 0 0,-2.5 z"
     id="path12"
     inkscape:connector-curvature="0" />
  <g
     id="g959"
     transform="matrix(0.13013203,0,0,0.13202501,26.004581,-10.012079)">
    <g
       id="g6">
      <g
         id="g4">
        <path
           id="path2"
           d="m 365.959,201.593 h -18.323 c -4.744,0 -8.591,3.846 -8.591,8.591 0,4.744 3.846,8.591 8.591,8.591 h 18.323 c 4.744,0 8.591,-3.846 8.591,-8.591 -0.001,-4.745 -3.847,-8.591 -8.591,-8.591 z"
           inkscape:connector-curvature="0" />
      </g>
    </g>
    <g
       id="g12">
      <g
         id="g10">
        <path
           id="path8-6"
           d="m 368.217,272.564 c -3.388,-4.339 -8.489,-6.828 -13.994,-6.828 H 157.776 c -5.505,0 -10.605,2.489 -13.994,6.828 -3.388,4.34 -4.566,9.891 -3.23,15.232 l 4.582,18.328 c 1.98,7.917 9.063,13.447 17.224,13.447 h 187.284 c 8.161,0 15.243,-5.53 17.224,-13.448 l 4.582,-18.327 c 1.335,-5.342 0.157,-10.893 -3.231,-15.232 z m -13.438,11.066 -4.582,18.326 c -0.064,0.257 -0.292,0.434 -0.555,0.434 H 162.358 c -0.263,0 -0.493,-0.179 -0.556,-0.433 L 157.22,283.63 c -0.021,-0.081 -0.068,-0.271 0.104,-0.491 0.172,-0.22 0.368,-0.22 0.451,-0.22 h 196.448 c 0.084,0 0.279,0 0.451,0.22 0.172,0.22 0.126,0.409 0.105,0.491 z"
           inkscape:connector-curvature="0" />
      </g>
    </g>
    <g
       id="g18">
      <g
         id="g16">
        <path
           sodipodi:nodetypes="ssssccccccsssssccsssssccsssssccssssssssscssscsccccssscsccccsssccsssccsssccssccsssccsssssss"
           inkscape:connector-curvature="0"
           id="path14"
           d="m 485.083,218.774 c 14.842,0 26.917,-12.075 26.917,-26.917 0,-14.842 -12.075,-26.917 -26.917,-26.917 h -9.163 c -13.383,0 -24.513,9.82 -26.573,22.631 L 426.43,124.548 c -5.165,-14.207 -18.792,-23.751 -33.908,-23.751 -109.50647,-1.471713 -158.73944,-3.055834 -273.045,0 -15.116,0 -28.743,9.545 -33.908,23.75 L 62.653,187.57 C 60.594,174.76 49.464,164.94 36.081,164.94 H 26.918 C 12.075,164.94 0,177.015 0,191.857 c 0,14.842 12.075,26.917 26.917,26.917 h 9.163 c 4.231,0 8.235,-0.984 11.801,-2.731 l -19.64,24.551 c -6.394,7.992 -9.915,18.029 -9.915,28.263 v 170.409 c 0,9.79 7.964,17.754 17.754,17.754 h 27.49 c 9.79,0 17.754,-7.964 17.754,-17.754 V 402.04 h 349.351 v 37.226 c 0,9.79 7.964,17.754 17.754,17.754 h 27.49 c 9.79,0 17.754,-7.964 17.754,-17.754 V 268.857 c 0,-10.234 -3.521,-20.272 -9.915,-28.263 l -19.64,-24.551 c 3.566,1.747 7.57,2.731 11.801,2.731 z M 36.081,201.593 h -9.163 c -5.369,0 -9.736,-4.367 -9.736,-9.736 0,-5.369 4.367,-9.736 9.736,-9.736 h 9.163 c 5.369,0 9.736,4.367 9.736,9.736 0,5.368 -4.368,9.736 -9.736,9.736 z m 28.062,237.673 c 0,0.316 -0.257,0.573 -0.573,0.573 H 36.08 c -0.316,0 -0.573,-0.257 -0.573,-0.573 v -42.588 c 5.5,3.396 11.974,5.362 18.899,5.362 h 9.736 v 37.226 z m 412.349,0 c 0,0.316 -0.257,0.573 -0.573,0.573 h -27.49 c -0.316,0 -0.573,-0.257 -0.573,-0.573 V 402.04 h 9.736 c 6.925,0 13.399,-1.966 18.899,-5.362 v 42.588 z m -6.148,-187.939 c 3.964,4.957 6.149,11.183 6.149,17.531 v 97.102 c 0,10.421 -8.478,18.899 -18.899,18.899 H 374.55 c -237.1,0 0,0 -237.1,0 H 54.407 c -10.421,0 -18.899,-8.478 -18.899,-18.899 v -97.102 c 0,-6.348 2.184,-12.574 6.15,-17.531 L 67.699,218.774 H 310.98 c 4.744,0 8.591,-3.846 8.591,-8.591 0,-4.744 -3.846,-8.591 -8.591,-8.591 H 75.836 l 25.882,-71.175 c 2.705,-7.441 9.843,-12.44 17.761,-12.44 h 273.044 c 7.918,0 15.055,5 17.761,12.44 l 25.882,71.175 h -33.551 c -4.744,0 -8.591,3.846 -8.591,8.591 0,4.744 3.846,8.591 8.591,8.591 h 41.688 z m -4.161,-59.47 c 0,-5.369 4.367,-9.736 9.736,-9.736 h 9.163 c 5.369,0 9.736,4.367 9.736,9.736 0,5.369 -4.367,9.736 -9.736,9.736 h -9.163 c -5.368,0 -9.736,-4.368 -9.736,-9.736 z" />
      </g>
    </g>
    <g
       id="g24">
      <g
         id="g22" />
    </g>
    <g
       id="g30">
      <g
         id="g28" />
    </g>
    <g
       id="g36">
      <g
         id="g34">
        <path
           id="path32"
           d="m 86.479,256.573 c -17.369,0 -31.499,14.13 -31.499,31.499 0,17.369 14.13,31.499 31.499,31.499 17.369,0 31.499,-14.13 31.499,-31.499 0,-17.369 -14.13,-31.499 -31.499,-31.499 z m 0,45.816 c -7.895,0 -14.318,-6.422 -14.318,-14.318 0,-7.896 6.422,-14.318 14.318,-14.318 7.896,0 14.318,6.422 14.318,14.318 0,7.896 -6.423,14.318 -14.318,14.318 z"
           inkscape:connector-curvature="0" />
      </g>
    </g>
    <g
       id="g42">
      <g
         id="g40">
        <path
           id="path38"
           d="m 425.521,256.573 c -17.369,0 -31.499,14.13 -31.499,31.499 0,17.369 14.13,31.499 31.499,31.499 17.369,0 31.499,-14.13 31.499,-31.499 0,-17.369 -14.13,-31.499 -31.499,-31.499 z m 0,45.816 c -7.895,0 -14.318,-6.422 -14.318,-14.318 0,-7.896 6.422,-14.318 14.318,-14.318 7.895,0 14.318,6.422 14.318,14.318 0,7.896 -6.422,14.318 -14.318,14.318 z"
           inkscape:connector-curvature="0" />
      </g>
    </g>
    <g
       id="g44" />
    <g
       id="g46" />
    <g
       id="g48" />
    <g
       id="g50" />
    <g
       id="g52" />
    <g
       id="g54" />
    <g
       id="g56" />
    <g
       id="g58" />
    <g
       id="g60" />
    <g
       id="g62" />
    <g
       id="g64" />
    <g
       id="g66" />
    <g
       id="g68" />
    <g
       id="g70" />
    <g
       id="g72" />
  </g>
</svg>
