<?xml version="1.0" encoding="UTF-8" standalone="no"?>
<svg
   xmlns:dc="http://purl.org/dc/elements/1.1/"
   xmlns:cc="http://creativecommons.org/ns#"
   xmlns:rdf="http://www.w3.org/1999/02/22-rdf-syntax-ns#"
   xmlns:svg="http://www.w3.org/2000/svg"
   xmlns="http://www.w3.org/2000/svg"
   xmlns:sodipodi="http://sodipodi.sourceforge.net/DTD/sodipodi-0.dtd"
   xmlns:inkscape="http://www.inkscape.org/namespaces/inkscape"
   id="Layer_1"
   data-name="Layer 1"
   viewBox="0 0 128 64"
   width="512"
   height="256"
   version="1.1"
   sodipodi:docname="plane.svg"
   inkscape:version="0.92.4 (unknown)">
  <metadata
     id="metadata19">
    <rdf:RDF>
      <cc:Work
         rdf:about="">
        <dc:format>image/svg+xml</dc:format>
        <dc:type
           rdf:resource="http://purl.org/dc/dcmitype/StillImage" />
        <dc:title>DEPATURES</dc:title>
      </cc:Work>
    </rdf:RDF>
  </metadata>
  <defs
     id="defs17" />
  <sodipodi:namedview
     pagecolor="#ffffff"
     bordercolor="#666666"
     borderopacity="1"
     objecttolerance="10"
     gridtolerance="10"
     guidetolerance="10"
     inkscape:pageopacity="0"
     inkscape:pageshadow="2"
     inkscape:window-width="1366"
     inkscape:window-height="720"
     id="namedview15"
     showgrid="false"
     inkscape:zoom="0.82284546"
     inkscape:cx="256"
     inkscape:cy="253.56941"
     inkscape:window-x="0"
     inkscape:window-y="277"
     inkscape:window-maximized="1"
     inkscape:current-layer="Layer_1" />
  <title
     id="title2">DEPATURES</title>
  <path
     d="m 16.124881,35.052495 4.118,3.337 c -1.412,2.967 -0.575,8.655 0,10.4 a 1.25,1.25 0 0 0 1.58,0.793 l 16.174,-5.367 a 1.2500498,1.2500498 0 0 0 -0.787,-2.373 l -14.9,4.945 c -0.546,-2.78 -0.469,-6.9 0.441,-7.7 a 1.25,1.25 0 0 0 -0.038,-1.91 l -4.859,-3.937 a 0.578,0.578 0 0 1 0.34,-0.795 l 2.2,-0.73 a 0.578,0.578 0 0 1 0.606,0.157 1.217,1.217 0 0 0 0.257,0.212 l 6.6,4.118 a 1.243,1.243 0 0 0 1.1,0.108 l 34.36,-13.015 a 1.25,1.25 0 0 0 0.156,-2.267 l -19.712,-10.742 a 1.343,1.343 0 0 1 0.774,-1.8810004 l 6.022,-2 2.194,0.953 a 1.2507847,1.2507847 0 0 0 1,-2.293 l -2.633,-1.143 a 1.253,1.253 0 0 0 -0.892,-0.04 l -6.476,2.148 a 3.843,3.843 0 0 0 -1.869,5.9500004 1.254,1.254 0 0 0 0.4,0.349 l 17.6,9.592 -31.226,11.829 -5.955,-3.713 a 3.084,3.084 0 0 0 -3.1,-0.7 l -2.2,0.73 a 3.075,3.075 0 0 0 -1.5,4.762 1.217,1.217 0 0 0 0.225,0.223 z"
     id="path4"
     inkscape:connector-curvature="0" />
  <path
     d="m 56.786881,9.1124946 0.714,0.311 a 1.2507847,1.2507847 0 0 0 1,-2.293 l -0.714,-0.31 a 1.2507847,1.2507847 0 1 0 -1,2.293 z"
     id="path6"
     inkscape:connector-curvature="0" />
  <path
     d="m 61.544881,11.178495 14.936,6.487 a 1.239,1.239 0 0 0 0.945,0.02 l 15.709,-6.021 c 5.559,-2.1000004 12.199999,1.382 14.210999,5.781 a 0.933,0.933 0 0 1 0,0.769 1,1 0 0 1 -0.6,0.552 l -63.717999,21.145 a 1.2500498,1.2500498 0 0 0 0.787,2.373 l 63.717999,-21.146 a 3.508,3.508 0 0 0 2.109,-1.926 3.45,3.45 0 0 0 -0.022,-2.808 c -2.512,-5.494 -10.473999,-9.6900004 -17.373999,-7.0770004 l -15.238,5.8420004 -14.467,-6.2840004 a 1.2507848,1.2507848 0 1 0 -1,2.2930004 z"
     id="path8"
     inkscape:connector-curvature="0" />
  <path
     d="m 108.68088,57.482495 h -0.95 a 1.25,1.25 0 0 0 0,2.5 h 0.95 a 1.25,1.25 0 0 0 0,-2.5 z"
     id="path10"
     inkscape:connector-curvature="0" />
  <path
     d="M 102.35588,57.482495 H 16.280881 a 1.25,1.25 0 0 0 0,2.5 h 86.074999 a 1.25,1.25 0 0 0 0,-2.5 z"
     id="path12"
     inkscape:connector-curvature="0" />
</svg>
