<?xml version="1.0" encoding="UTF-8" standalone="no"?>
<svg
   xmlns:dc="http://purl.org/dc/elements/1.1/"
   xmlns:cc="http://creativecommons.org/ns#"
   xmlns:rdf="http://www.w3.org/1999/02/22-rdf-syntax-ns#"
   xmlns:svg="http://www.w3.org/2000/svg"
   xmlns="http://www.w3.org/2000/svg"
   xmlns:sodipodi="http://sodipodi.sourceforge.net/DTD/sodipodi-0.dtd"
   xmlns:inkscape="http://www.inkscape.org/namespaces/inkscape"
   id="Layer_1"
   data-name="Layer 1"
   viewBox="0 0 128 64"
   width="512"
   height="256"
   version="1.1"
   sodipodi:docname="ship.svg"
   inkscape:version="0.92.4 (unknown)">
  <metadata
     id="metadata19">
    <rdf:RDF>
      <cc:Work
         rdf:about="">
        <dc:format>image/svg+xml</dc:format>
        <dc:type
           rdf:resource="http://purl.org/dc/dcmitype/StillImage" />
        <dc:title>DEPATURES</dc:title>
      </cc:Work>
    </rdf:RDF>
  </metadata>
  <defs
     id="defs17" />
  <sodipodi:namedview
     pagecolor="#ffffff"
     bordercolor="#666666"
     borderopacity="1"
     objecttolerance="10"
     gridtolerance="10"
     guidetolerance="10"
     inkscape:pageopacity="0"
     inkscape:pageshadow="2"
     inkscape:window-width="1366"
     inkscape:window-height="720"
     id="namedview15"
     showgrid="false"
     inkscape:zoom="0.82284546"
     inkscape:cx="125.53243"
     inkscape:cy="76.068912"
     inkscape:window-x="0"
     inkscape:window-y="277"
     inkscape:window-maximized="1"
     inkscape:current-layer="Layer_1" />
  <title
     id="title2">DEPATURES</title>
  <path
     d="m 108.68088,57.482495 h -0.95 a 1.25,1.25 0 0 0 0,2.5 h 0.95 a 1.25,1.25 0 0 0 0,-2.5 z"
     id="path10"
     inkscape:connector-curvature="0" />
  <path
     d="M 102.35588,57.482495 H 16.280881 a 1.25,1.25 0 0 0 0,2.5 h 86.074999 a 1.25,1.25 0 0 0 0,-2.5 z"
     id="path12"
     inkscape:connector-curvature="0" />
  <g
     id="g1153"
     transform="matrix(0.18175848,0,0,0.15992833,15.370621,-13.798769)">
    <g
       id="g1042"
       transform="translate(0,15.632002)">
	<g
   id="g1040">
		<path
   id="path1038"
   d="m 504.501,344.697 c -17.361,0 -26.477,4.702 -34.52,8.851 -0.144,0.074 -0.286,0.147 -0.43,0.221 l 34.685,-31.31 C 509.17,318.003 512,311.636 512,304.989 v -8.906 c 0,-8.556 -6.96,-15.516 -15.516,-15.516 h -52.099 l -57.143,-85.714 c -4.374,-6.562 -11.694,-10.479 -19.58,-10.479 h -87.613 c -7.367,0 -14.405,3.519 -18.826,9.413 l -16.989,22.652 h -22.909 l -14.323,-42.968 c -1.021,-3.063 -3.887,-5.128 -7.115,-5.128 h -32.064 c -2.411,0 -4.675,1.159 -6.084,3.115 -1.41,1.956 -1.793,4.47 -1.031,6.757 l 12.742,38.225 h -16.253 l -14.323,-42.968 c -1.021,-3.063 -3.887,-5.128 -7.115,-5.128 h -32.065 c -2.411,0 -4.675,1.159 -6.084,3.115 -1.41,1.956 -1.793,4.47 -1.031,6.757 l 12.742,38.225 H 90.897 c -7.886,0 -15.205,3.917 -19.58,10.479 L 35.55,280.57 h -4.002 c -8.556,0 -15.516,6.96 -15.516,15.516 v 49.038 c -2.612,-0.27 -5.436,-0.425 -8.532,-0.425 -4.142,0 -7.5,3.358 -7.5,7.5 0,4.142 3.358,7.5 7.5,7.5 13.703,0 20.147,3.328 27.609,7.18 8.036,4.149 17.144,8.852 34.491,8.852 17.347,0 26.455,-4.703 34.491,-8.852 7.462,-3.853 13.906,-7.18 27.609,-7.18 13.704,0 20.148,3.328 27.61,7.18 8.036,4.149 17.144,8.852 34.491,8.852 17.351,0 26.461,-4.703 34.499,-8.852 7.464,-3.853 13.911,-7.181 27.619,-7.181 13.714,0 20.163,3.328 27.63,7.181 8.041,4.149 17.153,8.851 34.509,8.851 17.351,0 26.462,-4.703 34.5,-8.852 7.465,-3.853 13.911,-7.181 27.62,-7.181 13.72,0 20.172,3.328 27.643,7.182 8.042,4.148 17.158,8.851 34.519,8.851 h 0.001 10e-4 0.001 c 17.358,-0.001 26.473,-4.702 34.515,-8.851 7.471,-3.854 13.923,-7.182 27.643,-7.182 4.142,0 7.5,-3.358 7.5,-7.5 0,-4.142 -3.358,-7.5 -7.5,-7.5 z m -310.02,-161.356 11.032,33.097 H 189.26 l -11.032,-33.097 z m -64.128,0 11.032,33.097 H 125.132 L 114.1,183.341 Z m -65.398,80.161 h 303.271 c 4.142,0 7.5,-3.358 7.5,-7.5 0,-4.142 -3.358,-7.5 -7.5,-7.5 H 74.955 l 8.843,-13.265 c 1.586,-2.379 4.24,-3.8 7.1,-3.8 l 243.10968,0 c 4.142,0 7.5,-3.358 7.5,-7.5 0,-4.142 -3.358,-7.5 -7.5,-7.5 l -71.02268,0 10.238,-13.651 c 1.603,-2.137 4.155,-3.413 6.826,-3.413 h 87.613 c 2.859,0 5.513,1.42 7.1,3.799 l 8.844,13.265 h -7.361 c -4.142,0 -7.5,3.358 -7.5,7.5 0,4.142 3.358,7.5 7.5,7.5 h 17.361 l 11.376,17.064 h -4.69 c -4.142,0 -7.5,3.358 -7.5,7.5 0,4.142 3.358,7.5 7.5,7.5 h 14.691 l 11.376,17.064 H 400.292 95.677 53.578 Z m 374.559,97.171 c -11.814,-0.428 -17.882,-3.549 -24.819,-7.127 -8.042,-4.148 -17.158,-8.851 -34.519,-8.851 -17.351,0 -26.462,4.703 -34.5,8.852 -7.465,3.853 -13.911,7.181 -27.62,7.181 -13.714,0 -20.163,-3.328 -27.63,-7.181 -8.04,-4.149 -17.153,-8.851 -34.508,-8.851 -17.351,0 -26.461,4.703 -34.499,8.852 -7.464,3.853 -13.911,7.181 -27.618,7.181 -13.703,0 -20.147,-3.327 -27.609,-7.18 -8.036,-4.149 -17.145,-8.852 -34.492,-8.852 -17.347,0 -26.455,4.703 -34.491,8.852 -7.462,3.853 -13.906,7.18 -27.609,7.18 -13.703,0 -20.147,-3.327 -27.609,-7.18 -3.302,-1.705 -6.797,-3.499 -10.959,-5.027 v -52.438 c 0,-0.285 0.231,-0.516 0.516,-0.516 h 42.204 c 148.8286,-0.75601 152.64787,-0.7492 348.461,0 h 74.269 c 0.285,0 0.516,0.231 0.516,0.516 v 8.905 H 497 c 0,2.41 -1.026,4.719 -2.815,6.333 z"
   inkscape:connector-curvature="0"
   sodipodi:nodetypes="scccsssccssccccsscccccsscccsccsscssscscscscscscscsccccssscccccccccccsssccssssccssccsssccsssccccccccscscscscscsccssccsscccc" />

	</g>

</g>
    <g
       id="g1048"
       transform="translate(0,15.632002)">
	<g
   id="g1046">
		<path
   id="path1044"
   d="M 119.725,136.275 H 110.48 C 106.966,118.032 90.881,104.21 71.628,104.21 c -14.584,0 -27.661,7.821 -34.578,20.307 -3.929,-2.754 -8.652,-4.274 -13.519,-4.274 C 10.557,120.244 0,130.799 0,143.776 c 0,4.143 3.358,7.5 7.5,7.5 4.142,0 7.5,-3.358 7.5,-7.5 0,-4.705 3.828,-8.533 8.532,-8.533 2.428,0 4.667,0.989 6.306,2.785 2.708,2.967 6.657,4.309 10.566,3.594 3.813,-0.699 6.945,-3.275 8.377,-6.892 3.737,-9.428 12.705,-15.52 22.848,-15.52 13.545,0 24.564,11.02 24.564,24.565 0,4.142 3.358,7.5 7.5,7.5 h 16.032 c 4.142,0 7.5,-3.358 7.5,-7.5 0,-4.142 -3.358,-7.5 -7.5,-7.5 z"
   inkscape:connector-curvature="0" />

	</g>

</g>
    <g
       id="g1054"
       transform="translate(0,15.632002)">
	<g
   id="g1052">
		<path
   id="path1050"
   d="m 392.274,152.309 h -48.097 c -4.142,0 -7.5,3.358 -7.5,7.5 0,4.142 3.358,7.5 7.5,7.5 h 48.097 c 4.142,0 7.5,-3.358 7.5,-7.5 0,-4.142 -3.358,-7.5 -7.5,-7.5 z"
   inkscape:connector-curvature="0" />

	</g>

</g>
    <g
       id="g1060"
       transform="translate(0,15.632002)">
	<g
   id="g1058">
		<path
   id="path1056"
   d="m 440.371,152.309 h -16.032 c -4.142,0 -7.5,3.358 -7.5,7.5 0,4.142 3.358,7.5 7.5,7.5 h 16.032 c 4.142,0 7.5,-3.358 7.5,-7.5 0,-4.142 -3.358,-7.5 -7.5,-7.5 z"
   inkscape:connector-curvature="0" />

	<path
   inkscape:connector-curvature="0"
   d="m 357.93012,215.95061 h -8.69153 c -2.24553,0 -4.06602,3.358 -4.06602,7.5 0,4.142 1.82049,7.5 4.06602,7.5 h 8.69153 c 2.24553,0 4.06602,-3.358 4.06602,-7.5 0,-4.142 -1.82049,-7.5 -4.06602,-7.5 z"
   id="path1174"
   style="stroke-width:0.7362991"
   sodipodi:nodetypes="sssssss" />
</g>

</g>
    <g
       id="g1072"
       transform="translate(0,15.632002)">
	<g
   id="g1070">
		
	</g>

</g>
    <g
       id="g1074">
</g>
    <g
       id="g1076">
</g>
    <g
       id="g1078">
</g>
    <g
       id="g1080">
</g>
    <g
       id="g1082">
</g>
    <g
       id="g1084">
</g>
    <g
       id="g1086">
</g>
    <g
       id="g1088">
</g>
    <g
       id="g1090">
</g>
    <g
       id="g1092">
</g>
    <g
       id="g1094">
</g>
    <g
       id="g1096">
</g>
    <g
       id="g1098">
</g>
    <g
       id="g1100">
</g>
    <g
       id="g1102">
</g>
  </g>
</svg>
